<mxfile host="65bd71144e">
    <diagram id="nxGFpUmJbVQnQkTq8eCP" name="Page-1">
        <mxGraphModel dx="2205" dy="860" grid="1" gridSize="10" guides="1" tooltips="1" connect="1" arrows="1" fold="1" page="1" pageScale="1" pageWidth="827" pageHeight="1169" math="0" shadow="0">
            <root>
                <mxCell id="0"/>
                <mxCell id="1" parent="0"/>
                <mxCell id="23" style="edgeStyle=none;html=1;exitX=1;exitY=0.5;exitDx=0;exitDy=0;entryX=0;entryY=0.5;entryDx=0;entryDy=0;" parent="1" source="2" target="21" edge="1">
                    <mxGeometry relative="1" as="geometry"/>
                </mxCell>
                <mxCell id="2" value="&lt;font style=&quot;font-size: 24px&quot;&gt;run&lt;/font&gt;" style="rounded=0;whiteSpace=wrap;html=1;" parent="1" vertex="1">
                    <mxGeometry x="-230" y="930" width="120" height="60" as="geometry"/>
                </mxCell>
                <mxCell id="25" style="edgeStyle=none;html=1;exitX=1;exitY=0.5;exitDx=0;exitDy=0;entryX=0;entryY=0.5;entryDx=0;entryDy=0;" parent="1" source="3" target="5" edge="1">
                    <mxGeometry relative="1" as="geometry"/>
                </mxCell>
                <mxCell id="3" value="&lt;font style=&quot;font-size: 24px&quot;&gt;infill&lt;/font&gt;" style="rounded=0;whiteSpace=wrap;html=1;" parent="1" vertex="1">
                    <mxGeometry x="240" y="950" width="140" height="60" as="geometry"/>
                </mxCell>
                <mxCell id="24" style="edgeStyle=none;html=1;exitX=1;exitY=0.5;exitDx=0;exitDy=0;entryX=0;entryY=0.5;entryDx=0;entryDy=0;" parent="1" source="4" target="3" edge="1">
                    <mxGeometry relative="1" as="geometry"/>
                </mxCell>
                <mxCell id="36" style="edgeStyle=none;html=1;" parent="1" source="4" target="31" edge="1">
                    <mxGeometry relative="1" as="geometry"/>
                </mxCell>
                <mxCell id="4" value="next" style="rounded=0;whiteSpace=wrap;html=1;" parent="1" vertex="1">
                    <mxGeometry x="40" y="950" width="120" height="60" as="geometry"/>
                </mxCell>
                <mxCell id="26" style="edgeStyle=none;html=1;exitX=1;exitY=0.5;exitDx=0;exitDy=0;entryX=0.5;entryY=0;entryDx=0;entryDy=0;" parent="1" source="5" target="6" edge="1">
                    <mxGeometry relative="1" as="geometry"/>
                </mxCell>
                <mxCell id="28" style="edgeStyle=none;html=1;" parent="1" source="5" target="9" edge="1">
                    <mxGeometry relative="1" as="geometry"/>
                </mxCell>
                <mxCell id="5" value="&lt;pre style=&quot;background-color: #282a36 ; color: #f8f8f2 ; font-family: &amp;#34;jetbrains mono&amp;#34; , monospace ; font-size: 9.8pt&quot;&gt;&lt;pre style=&quot;font-family: &amp;#34;jetbrains mono&amp;#34; , monospace ; font-size: 9.8pt&quot;&gt;&lt;span style=&quot;color: #ff79c6&quot;&gt;if not &lt;/span&gt;&lt;span style=&quot;color: #bd93f9 ; font-style: italic&quot;&gt;self&lt;/span&gt;.is_initialized&lt;span style=&quot;color: #f998cc&quot;&gt;:&lt;/span&gt;&lt;/pre&gt;&lt;/pre&gt;" style="rounded=1;whiteSpace=wrap;html=1;" parent="1" vertex="1">
                    <mxGeometry x="440" y="830" width="230" height="50" as="geometry"/>
                </mxCell>
                <mxCell id="12" style="edgeStyle=none;html=1;exitX=1;exitY=0.5;exitDx=0;exitDy=0;entryX=0;entryY=0.5;entryDx=0;entryDy=0;" parent="1" source="6" target="7" edge="1">
                    <mxGeometry relative="1" as="geometry"/>
                </mxCell>
                <mxCell id="27" style="edgeStyle=none;html=1;exitX=0.5;exitY=1;exitDx=0;exitDy=0;" parent="1" source="6" target="8" edge="1">
                    <mxGeometry relative="1" as="geometry"/>
                </mxCell>
                <mxCell id="6" value="&lt;pre style=&quot;background-color: #282a36 ; color: #f8f8f2 ; font-family: &amp;#34;jetbrains mono&amp;#34; , monospace ; font-size: 9.8pt&quot;&gt;&lt;span style=&quot;color: #bd93f9 ; font-style: italic&quot;&gt;self&lt;/span&gt;.&lt;span style=&quot;color: #50fa7b&quot;&gt;_initialize&lt;/span&gt;&lt;span style=&quot;color: #fff906&quot;&gt;()&lt;/span&gt;&lt;/pre&gt;" style="rounded=1;whiteSpace=wrap;html=1;" parent="1" vertex="1">
                    <mxGeometry x="687" y="970" width="200" height="60" as="geometry"/>
                </mxCell>
                <mxCell id="14" style="edgeStyle=none;html=1;exitX=1;exitY=0.5;exitDx=0;exitDy=0;" parent="1" source="8" target="13" edge="1">
                    <mxGeometry relative="1" as="geometry"/>
                </mxCell>
                <mxCell id="8" value="&lt;pre style=&quot;background-color: #282a36 ; color: #f8f8f2 ; font-family: &amp;#34;jetbrains mono&amp;#34; , monospace ; font-size: 9.8pt&quot;&gt;infills &lt;span style=&quot;color: #f998cc&quot;&gt;= &lt;/span&gt;&lt;span style=&quot;color: #bd93f9 ; font-style: italic&quot;&gt;self&lt;/span&gt;.&lt;span style=&quot;color: #50fa7b&quot;&gt;_initialize_infill&lt;/span&gt;&lt;span style=&quot;color: #fff906&quot;&gt;()&lt;/span&gt;&lt;/pre&gt;" style="rounded=1;whiteSpace=wrap;html=1;" parent="1" vertex="1">
                    <mxGeometry x="670" y="1080" width="300" height="90" as="geometry"/>
                </mxCell>
                <mxCell id="9" value="else&lt;br&gt;" style="rounded=1;whiteSpace=wrap;html=1;" parent="1" vertex="1">
                    <mxGeometry x="480" y="1220" width="120" height="60" as="geometry"/>
                </mxCell>
                <mxCell id="10" value="&lt;pre style=&quot;background-color: #282a36 ; color: #f8f8f2 ; font-family: &amp;#34;jetbrains mono&amp;#34; , monospace ; font-size: 9.8pt&quot;&gt;infills &lt;span style=&quot;color: #f998cc&quot;&gt;= &lt;/span&gt;&lt;span style=&quot;color: #bd93f9 ; font-style: italic&quot;&gt;self&lt;/span&gt;.&lt;span style=&quot;color: #50fa7b&quot;&gt;_infill&lt;/span&gt;&lt;span style=&quot;color: #fff906&quot;&gt;()&lt;/span&gt;&lt;/pre&gt;" style="rounded=1;whiteSpace=wrap;html=1;" parent="1" vertex="1">
                    <mxGeometry x="670" y="1360" width="233" height="70" as="geometry"/>
                </mxCell>
                <mxCell id="18" style="edgeStyle=none;html=1;exitX=1;exitY=0.5;exitDx=0;exitDy=0;" parent="1" source="13" target="15" edge="1">
                    <mxGeometry relative="1" as="geometry"/>
                </mxCell>
                <mxCell id="13" value="&lt;pre style=&quot;background-color: #282a36 ; color: #f8f8f2 ; font-family: &amp;#34;jetbrains mono&amp;#34; , monospace ; font-size: 9.8pt&quot;&gt;pop &lt;span style=&quot;color: #f998cc&quot;&gt;= &lt;/span&gt;&lt;span style=&quot;color: #bd93f9 ; font-style: italic&quot;&gt;self&lt;/span&gt;.initialization.&lt;span style=&quot;color: #50fa7b&quot;&gt;do&lt;/span&gt;&lt;span style=&quot;color: #fff906&quot;&gt;(&lt;/span&gt;&lt;span style=&quot;color: #bd93f9 ; font-style: italic&quot;&gt;self&lt;/span&gt;.problem, &lt;span style=&quot;color: #bd93f9 ; font-style: italic&quot;&gt;self&lt;/span&gt;.pop_size, &lt;span style=&quot;color: #6272a4&quot;&gt;algorithm&lt;/span&gt;&lt;span style=&quot;color: #f998cc&quot;&gt;=&lt;/span&gt;&lt;span style=&quot;color: #bd93f9 ; font-style: italic&quot;&gt;self&lt;/span&gt;&lt;span style=&quot;color: #fff906&quot;&gt;)&lt;/span&gt;&lt;/pre&gt;" style="rounded=0;whiteSpace=wrap;html=1;" parent="1" vertex="1">
                    <mxGeometry x="1110" y="1100" width="530" height="60" as="geometry"/>
                </mxCell>
                <mxCell id="17" style="edgeStyle=none;html=1;exitX=0.5;exitY=0;exitDx=0;exitDy=0;entryX=0.469;entryY=1.033;entryDx=0;entryDy=0;entryPerimeter=0;" parent="1" source="15" target="16" edge="1">
                    <mxGeometry relative="1" as="geometry"/>
                </mxCell>
                <mxCell id="15" value="&lt;pre style=&quot;background-color: #282a36 ; color: #f8f8f2 ; font-family: &amp;#34;jetbrains mono&amp;#34; , monospace ; font-size: 9.8pt&quot;&gt;&lt;span style=&quot;color: #bd93f9 ; font-style: italic&quot;&gt;self&lt;/span&gt;.initialization.&lt;span style=&quot;color: #50fa7b&quot;&gt;do&lt;/span&gt;&lt;span style=&quot;color: #fff906&quot;&gt;(&lt;/span&gt;&lt;span style=&quot;color: #bd93f9 ; font-style: italic&quot;&gt;self&lt;/span&gt;.problem, &lt;span style=&quot;color: #bd93f9 ; font-style: italic&quot;&gt;self&lt;/span&gt;.pop_size, &lt;span style=&quot;color: #6272a4&quot;&gt;algorithm&lt;/span&gt;&lt;span style=&quot;color: #f998cc&quot;&gt;=&lt;/span&gt;&lt;span style=&quot;color: #bd93f9 ; font-style: italic&quot;&gt;self&lt;/span&gt;&lt;span style=&quot;color: #fff906&quot;&gt;)&lt;/span&gt;&lt;/pre&gt;" style="rounded=0;whiteSpace=wrap;html=1;" parent="1" vertex="1">
                    <mxGeometry x="1800" y="1100" width="690" height="60" as="geometry"/>
                </mxCell>
                <mxCell id="20" style="edgeStyle=none;html=1;exitX=1;exitY=0.5;exitDx=0;exitDy=0;" parent="1" source="16" target="19" edge="1">
                    <mxGeometry relative="1" as="geometry"/>
                </mxCell>
                <mxCell id="16" value="&lt;pre style=&quot;background-color: #282a36 ; color: #f8f8f2 ; font-family: &amp;#34;jetbrains mono&amp;#34; , monospace ; font-size: 9.8pt&quot;&gt;&lt;span style=&quot;color: #ff79c6&quot;&gt;class &lt;/span&gt;&lt;span style=&quot;color: #8be9fd&quot;&gt;Initialization&lt;/span&gt;&lt;span style=&quot;color: #f998cc&quot;&gt;:&lt;/span&gt;&lt;/pre&gt;" style="rounded=1;whiteSpace=wrap;html=1;" parent="1" vertex="1">
                    <mxGeometry x="2120" y="920" width="210" height="90" as="geometry"/>
                </mxCell>
                <mxCell id="19" value="create inital pop" style="rounded=1;whiteSpace=wrap;html=1;" parent="1" vertex="1">
                    <mxGeometry x="2360" y="935" width="120" height="60" as="geometry"/>
                </mxCell>
                <mxCell id="22" style="edgeStyle=none;html=1;" parent="1" source="21" target="4" edge="1">
                    <mxGeometry relative="1" as="geometry"/>
                </mxCell>
                <mxCell id="30" style="edgeStyle=none;html=1;exitX=0.5;exitY=0;exitDx=0;exitDy=0;" parent="1" source="21" target="29" edge="1">
                    <mxGeometry relative="1" as="geometry"/>
                </mxCell>
                <mxCell id="21" value="&lt;pre style=&quot;background-color: #282a36 ; color: #f8f8f2 ; font-family: &amp;#34;jetbrains mono&amp;#34; , monospace ; font-size: 9.8pt&quot;&gt;&lt;span style=&quot;color: #50fa7b&quot;&gt;setup&lt;/span&gt;&lt;/pre&gt;" style="rounded=1;whiteSpace=wrap;html=1;" parent="1" vertex="1">
                    <mxGeometry x="40" y="810" width="120" height="60" as="geometry"/>
                </mxCell>
                <mxCell id="29" value="&lt;pre style=&quot;background-color: #282a36 ; color: #f8f8f2 ; font-family: &amp;#34;jetbrains mono&amp;#34; , monospace ; font-size: 9.8pt&quot;&gt;&lt;span style=&quot;color: #50fa7b&quot;&gt;Evaluator&lt;/span&gt;&lt;span style=&quot;color: #fff906&quot;&gt;()&lt;/span&gt;&lt;/pre&gt;" style="rounded=0;whiteSpace=wrap;html=1;" parent="1" vertex="1">
                    <mxGeometry x="230" y="640" width="120" height="60" as="geometry"/>
                </mxCell>
                <mxCell id="37" style="edgeStyle=none;html=1;" parent="1" source="31" target="32" edge="1">
                    <mxGeometry relative="1" as="geometry"/>
                </mxCell>
                <mxCell id="39" style="edgeStyle=none;html=1;" parent="1" source="31" target="34" edge="1">
                    <mxGeometry relative="1" as="geometry"/>
                </mxCell>
                <mxCell id="31" value="&lt;pre style=&quot;background-color: #282a36 ; color: #f8f8f2 ; font-family: &amp;#34;jetbrains mono&amp;#34; , monospace ; font-size: 9.8pt&quot;&gt;&lt;span style=&quot;color: #ff79c6&quot;&gt;if &lt;/span&gt;infills &lt;span style=&quot;color: #ff79c6&quot;&gt;is not None&lt;/span&gt;&lt;span style=&quot;color: #f998cc&quot;&gt;:&lt;/span&gt;&lt;/pre&gt;" style="rounded=1;whiteSpace=wrap;html=1;" parent="1" vertex="1">
                    <mxGeometry x="-120" y="1140" width="200" height="50" as="geometry"/>
                </mxCell>
                <mxCell id="38" style="edgeStyle=none;html=1;entryX=0.5;entryY=0;entryDx=0;entryDy=0;" parent="1" source="32" target="33" edge="1">
                    <mxGeometry relative="1" as="geometry"/>
                </mxCell>
                <mxCell id="32" value="&lt;pre style=&quot;background-color: rgb(40 , 42 , 54) ; font-family: &amp;#34;jetbrains mono&amp;#34; , monospace ; font-size: 9.8pt&quot;&gt;&lt;font color=&quot;#bd93f9&quot;&gt;&lt;i&gt;evaluator.eval()&lt;/i&gt;&lt;/font&gt;&lt;/pre&gt;" style="rounded=1;whiteSpace=wrap;html=1;" parent="1" vertex="1">
                    <mxGeometry y="1260" width="230" height="60" as="geometry"/>
                </mxCell>
                <mxCell id="33" value="&lt;pre style=&quot;background-color: #282a36 ; color: #f8f8f2 ; font-family: &amp;#34;jetbrains mono&amp;#34; , monospace ; font-size: 9.8pt&quot;&gt;&lt;span style=&quot;color: #bd93f9 ; font-style: italic&quot;&gt;self&lt;/span&gt;.&lt;span style=&quot;color: #50fa7b&quot;&gt;advance&lt;/span&gt;&lt;span style=&quot;color: #fff906&quot;&gt;(&lt;/span&gt;&lt;span style=&quot;color: #6272a4&quot;&gt;infills&lt;/span&gt;&lt;span style=&quot;color: #f998cc&quot;&gt;=&lt;/span&gt;infills&lt;span style=&quot;color: #fff906&quot;&gt;)&lt;/span&gt;&lt;/pre&gt;" style="rounded=1;whiteSpace=wrap;html=1;" parent="1" vertex="1">
                    <mxGeometry y="1370" width="230" height="50" as="geometry"/>
                </mxCell>
                <mxCell id="40" style="edgeStyle=none;html=1;entryX=0.5;entryY=0;entryDx=0;entryDy=0;" parent="1" source="34" target="35" edge="1">
                    <mxGeometry relative="1" as="geometry"/>
                </mxCell>
                <mxCell id="34" value="else:" style="rounded=1;whiteSpace=wrap;html=1;" parent="1" vertex="1">
                    <mxGeometry x="-80" y="1500" width="120" height="60" as="geometry"/>
                </mxCell>
                <mxCell id="35" value="&lt;pre style=&quot;background-color: #282a36 ; color: #f8f8f2 ; font-family: &amp;quot;jetbrains mono&amp;quot; , monospace ; font-size: 9.8pt&quot;&gt;&lt;span style=&quot;color: #bd93f9 ; font-style: italic&quot;&gt;self&lt;/span&gt;.&lt;span style=&quot;color: #50fa7b&quot;&gt;advance&lt;/span&gt;&lt;span style=&quot;color: #fff906&quot;&gt;()&lt;/span&gt;&lt;/pre&gt;" style="rounded=1;whiteSpace=wrap;html=1;" parent="1" vertex="1">
                    <mxGeometry x="10" y="1590" width="120" height="60" as="geometry"/>
                </mxCell>
                <mxCell id="7" value="&lt;pre style=&quot;background-color: #282a36 ; color: #f8f8f2 ; font-family: &amp;#34;jetbrains mono&amp;#34; , monospace ; font-size: 9.8pt&quot;&gt;&lt;span style=&quot;color: #bd93f9 ; font-style: italic&quot;&gt;self&lt;/span&gt;.n_gen &lt;span style=&quot;color: #f998cc&quot;&gt;= &lt;/span&gt;&lt;span style=&quot;color: #bd93f9&quot;&gt;1&lt;br&gt;&lt;/span&gt;&lt;span style=&quot;color: #bd93f9 ; font-style: italic&quot;&gt;self&lt;/span&gt;.has_terminated &lt;span style=&quot;color: #f998cc&quot;&gt;= &lt;/span&gt;&lt;span style=&quot;color: #ff79c6&quot;&gt;False&lt;br&gt;&lt;/span&gt;&lt;span style=&quot;color: #bd93f9 ; font-style: italic&quot;&gt;self&lt;/span&gt;.pop, &lt;span style=&quot;color: #bd93f9 ; font-style: italic&quot;&gt;self&lt;/span&gt;.opt &lt;span style=&quot;color: #f998cc&quot;&gt;= &lt;/span&gt;&lt;span style=&quot;color: #50fa7b&quot;&gt;Population&lt;/span&gt;&lt;span style=&quot;color: #fff906&quot;&gt;()&lt;/span&gt;, &lt;span style=&quot;color: #ff79c6&quot;&gt;None&lt;/span&gt;&lt;/pre&gt;" style="rounded=1;whiteSpace=wrap;html=1;" parent="1" vertex="1">
                    <mxGeometry x="1030" y="910" width="360" height="140" as="geometry"/>
                </mxCell>
            </root>
        </mxGraphModel>
    </diagram>
</mxfile>